<svg xmlns="http://www.w3.org/2000/svg" viewBox="0 0 32 32"><g fill="none" fill-rule="evenodd"><path fill="#4770B6" d="M20.785 2L2.841 12.168l20.037-4.187z"/><path fill="#6998D0" d="M20.785 2l-8.972.748 3.244 2.498z"/><path fill="#ECBC1E" d="M4.037 28.318l.944-4.636h21.638l1.493 4.636z"/><path fill="#CC9E2C" d="M4.037 28.318l4.636 2.392v-2.392z"/><path fill="#CE2927" d="M27.182 25.431l-.565-1.749h2.392z"/><path fill="#EF5323" d="M1.794 11.121L0 23.682h29.009l2.842-17.944z"/><path fill="#FFF" d="M2.729 12.702l-.222-.032.086-.601.602-.083.03.222-.434.06zM26.35 9.04l-.03-.22 1-.14.03.22-1 .14zm-2.01.27l-.03-.22 1-.14.03.23-1 .13zm-2.01.28l-.04-.22 1.01-.14.03.22-1 .14zm-2.02.27l-.03-.22 1-.14.04.23-1 .13zm-2 .28l-.04-.22 1-.14.04.22-1 .14zm-2.02.28l-.03-.23 1-.13.04.22-1 .14zm-2 .27l-.04-.22 1-.14.04.22-1 .14zm-2.02.28l-.03-.22 1-.14.04.22-1 .14zm-2 .27l-.04-.22 1-.14.04.23-1 .13zm-2.02.28l-.03-.22 1-.14.04.22-1 .14zm-2 .27l-.04-.22 1-.14.04.23-1 .13zm-2.02.28l-.03-.22 1-.14.04.22-1 .14zM28.891 9.114l-.222-.034.057-.369-.37.051-.03-.223.668-.091zM28.6 11.05l-.24-.05.15-.96.22.03-.15.97zm-.3 1.93l-.23-.03.15-.97.22.04-.14.96zm-.3 1.94l-.22-.04.15-.96.22.03-.15.97zm-.3 1.93l-.22-.03.15-.97.22.03-.15.97zm-.3 1.94l-.22-.04.15-.97.22.04-.15.97zm-.3 1.93l-.22-.03.15-.97.22.03-.14.97zM26.245 22.308l-.004-.224.429-.008.065-.423.222.034-.094.61zM24.11 22.5v-.37l1.06-.03v.37l-1.06.03zm-2.13.06v-.37l1.06-.03v.37l-1.06.03zm-2.13.06v-.37l1.06-.03v.37l-1.06.03zm-2.13.06v-.37l1.06-.03v.37l-1.06.03zm-2.14.06v-.36l1.07-.03v.36l-1.07.03zm-2.13.06v-.36l1.06-.03v.36l-1.06.03zm-2.13.06v-.36l1.06-.03v.36l-1.06.03zm-2.13.06v-.36l1.06-.03v.36l-1.06.03zm-2.14.06v-.36l1.06-.03v.36l-1.06.03zm-2.13.06v-.36l1.06-.03V23l-1.06.03zm-2.13.06v-.36l1.06-.03v.36l-1.06.03zM1.067 22.75l.092-.649.222.032-.055.388.392-.007.004.224zM2.43 14.8l-.22-.03.15-1.05.22.03-.15 1.05zm-.3 2.1l-.22-.04.15-1.05.22.04-.15 1.04zm-.3 2.09l-.22-.03.15-1.05.22.03L1.83 19zm-.3 2.1l-.22-.04.15-1.04.22.03-.15 1.05zM8.211 14.791l.696-.069v4.52h1.335v-4.618l.779-.139v-1.182l-2.81.362zM11.536 14.026l1.307-.194v-.738l-1.307.209zM11.425 19.242h1.293l.125-5.16-1.307.264z"/><g fill="#FFF"><path d="M15.025 17.038s.04.54-.04 1.06c-.08.53-.39.3-.39-.07l.07-2.89c0-.35.36-.32.36.03v.75h1.13v-1.02c0-.83-.63-1.15-1.35-1.15-1.27 0-1.43 1.46-1.43 2.11v1.87c0 1.14.41 1.63 1.37 1.63 1.69 0 1.4-2.32 1.4-2.32h-1.12zM19.423 13.56h-1.085l-.362 1.287v-2.309l-1.21.111v6.594h1.168v-1.92l.404 1.92h1.182l-.723-3.297zM24.595 14.148h.38v-.92h-.35v-.9l-1.23.16v.8l-.23.02v.97l.23-.01v4.07c0 .95.45.9.9.9h.68v-.76c-.42 0-.38-.16-.38-.51v-3.82zm-3.1.8v.5h-.34v-.56c0-.26-.04-.68.16-.68.23 0 .17.55.17.74m-.14-1.85c-1.3 0-1.45 1.4-1.45 2.23v2.3c0 .64.15 1.73 1.4 1.73 1.24 0 1.45-1.02 1.45-1.57v-.85l-1.21.04s.02.77-.03 1.2c-.04.42-.38.28-.37-.07 0-.34.07-1.62.07-1.62h1.54v-1.27c0-1.48-.62-2.12-1.4-2.12m-14.86 3.35h-.37v-.43c0-.15-.03-.42.15-.42.25 0 .22.3.22.85m-.1-1.73c-1.26 0-1.57.94-1.57 1.34v1.99c0 .49.18 1.3 1.44 1.3 1.25 0 1.4-.86 1.4-1.08v-.85h-1.15v.86c0 .34-.4.35-.4.12v-1.28h1.62v-1.17c0-.99-.68-1.23-1.35-1.23"/></g></g></svg>