<svg xmlns="http://www.w3.org/2000/svg" viewBox="0 0 32 32"><g fill="none" fill-rule="evenodd" transform="translate(0 2)"><polygon fill="#4770B6" points="20.785 0 2.841 10.168 22.878 5.981"/><polygon fill="#6998D0" points="20.785 0 11.813 .748 15.057 3.246"/><polygon fill="#ECBC1E" points="4.037 26.318 4.981 21.682 26.619 21.682 28.112 26.318"/><polygon fill="#CC9E2C" points="4.037 26.318 8.673 28.71 8.673 26.318"/><polygon fill="#CE2927" points="27.182 23.431 26.617 21.682 29.009 21.682"/><polygon fill="#EF5323" points="1.794 9.121 0 21.682 29.009 21.682 31.851 3.738"/><polygon fill="#FFFFFF" points="2.729 10.702 2.507 10.67 2.593 10.069 3.195 9.986 3.225 10.208 2.791 10.268"/><path fill="#FFFFFF" d="M26.35 7.04l-.03-.22 1-.14.03.22-1 .14zm-2.01.27l-.03-.22 1-.14.03.23-1 .13zm-2.01.28l-.04-.22 1.01-.14.03.22-1 .14zm-2.02.27l-.03-.22 1-.14.04.23-1 .13zm-2 .28l-.04-.22 1-.14.04.22-1 .14zm-2.02.28l-.03-.23 1-.13.04.22-1 .14zm-2 .27l-.04-.22 1-.14.04.22-1 .14zm-2.02.28l-.03-.22 1-.14.04.22-1 .14zm-2 .27l-.04-.22 1-.14.04.23-1 .13zm-2.02.28l-.03-.22 1-.14.04.22-1 .14zm-2 .27l-.04-.22 1-.14.04.23-1 .13zm-2.02.28l-.03-.22 1-.14.04.22-1 .14z"/><polygon fill="#FFFFFF" points="28.891 7.114 28.669 7.08 28.726 6.711 28.356 6.762 28.326 6.539 28.994 6.448"/><path fill="#FFFFFF" d="M28.6 9.05L28.36 9l.15-.96.22.03-.15.97zm-.3 1.93l-.23-.03.15-.97.22.04-.14.96zm-.3 1.94l-.22-.04.15-.96.22.03-.15.97zm-.3 1.93l-.22-.03.15-.97.22.03-.15.97zm-.3 1.94l-.22-.04.15-.97.22.04-.15.97zm-.3 1.93l-.22-.03.15-.97.22.03-.14.97z"/><polygon fill="#FFFFFF" points="26.245 20.308 26.241 20.084 26.67 20.076 26.735 19.653 26.957 19.687 26.863 20.297"/><path fill="#FFFFFF" d="M24.11 20.5v-.37l1.06-.03v.37l-1.06.03zm-2.13.06v-.37l1.06-.03v.37l-1.06.03zm-2.13.06v-.37l1.06-.03v.37l-1.06.03zm-2.13.06v-.37l1.06-.03v.37l-1.06.03zm-2.14.06v-.36l1.07-.03v.36l-1.07.03zm-2.13.06v-.36l1.06-.03v.36l-1.06.03zm-2.13.06v-.36l1.06-.03v.36l-1.06.03zm-2.13.06v-.36l1.06-.03v.36l-1.06.03zm-2.14.06v-.36l1.06-.03v.36l-1.06.03zm-2.13.06v-.36l1.06-.03V21l-1.06.03zm-2.13.06v-.36l1.06-.03v.36l-1.06.03z"/><polygon fill="#FFFFFF" points="1.067 20.75 1.159 20.101 1.381 20.133 1.326 20.521 1.718 20.514 1.722 20.738"/><path fill="#FFFFFF" d="M2.43 12.8l-.22-.03.15-1.05.22.03-.15 1.05zm-.3 2.1l-.22-.04.15-1.05.22.04-.15 1.04zm-.3 2.09l-.22-.03.15-1.05.22.03L1.83 17zm-.3 2.1l-.22-.04.15-1.04.22.03-.15 1.05z"/><polygon fill="#FFFFFF" points="8.211 12.791 8.907 12.722 8.907 17.242 10.242 17.242 10.242 12.624 11.021 12.485 11.021 11.303 8.211 11.665"/><polygon fill="#FFFFFF" points="11.536 12.026 12.843 11.832 12.843 11.094 11.536 11.303"/><polygon fill="#FFFFFF" points="11.425 17.242 12.718 17.242 12.843 12.082 11.536 12.346"/><g fill="#FFFFFF" transform="translate(4.785 10.318)"><path d="M10.24 4.72s.04.54-.04 1.06c-.08.53-.39.3-.39-.07l.07-2.89c0-.35.36-.32.36.03v.75h1.13V2.58c0-.83-.63-1.15-1.35-1.15-1.27 0-1.43 1.46-1.43 2.11v1.87c0 1.14.41 1.63 1.37 1.63 1.69 0 1.4-2.32 1.4-2.32h-1.12z"/><polygon points="14.638 1.242 13.553 1.242 13.191 2.529 13.191 .22 11.981 .331 11.981 6.925 13.149 6.925 13.149 5.005 13.553 6.925 14.735 6.925 14.012 3.628"/><path d="M19.81 1.83h.38V.91h-.35v-.9l-1.23.16v.8l-.23.02v.97l.23-.01v4.07c0 .95.45.9.9.9h.68v-.76c-.42 0-.38-.16-.38-.51V1.83zm-3.1.8v.5h-.34v-.56c0-.26-.04-.68.16-.68.23 0 .17.55.17.74M16.56.78c-1.3 0-1.45 1.4-1.45 2.23v2.3c0 .64.15 1.73 1.4 1.73 1.24 0 1.45-1.02 1.45-1.57v-.85l-1.21.04s.02.77-.03 1.2c-.04.42-.38.28-.37-.07 0-.34.07-1.62.07-1.62h1.54V2.9c0-1.48-.62-2.12-1.4-2.12M1.7 4.13h-.37V3.7c0-.15-.03-.42.15-.42.25 0 .22.3.22.85M1.6 2.4C.34 2.4.03 3.34.03 3.74v1.99c0 .49.18 1.3 1.44 1.3 1.25 0 1.4-.86 1.4-1.08V5.1H1.72v.86c0 .34-.4.35-.4.12V4.8h1.62V3.63c0-.99-.68-1.23-1.35-1.23"/></g></g></svg>